<svg xmlns="http://www.w3.org/2000/svg" viewBox="0 0 512 512" role="img" aria-label="Logo Hortelan AgTech Ltda">
  <defs>
    <linearGradient id="leaf" x1="0" y1="0" x2="1" y2="1">
      <stop offset="0%" stop-color="#A3E635"/>
      <stop offset="100%" stop-color="#059669"/>
    </linearGradient>
    <style>
      .t1{font:700 58px 'Inter',Arial,sans-serif;fill:#065f46}
      .t2{font:400 30px 'Inter',Arial,sans-serif;fill:#2f7f68;letter-spacing:1px}
    </style>
  </defs>

  <g transform="translate(96 40)">
    <path d="M160 232c-6-74 36-133 110-156 21 57 7 136-53 176-20 13-41 18-57 17z" fill="url(#leaf)"/>
    <path d="M160 232c8-70-24-130-93-165-27 52-22 132 29 178 22 20 48 29 64 29z" fill="url(#leaf)"/>
    <path d="M160 232c-64-28-135-20-193 29 46 44 121 61 188 34 23-9 41-23 52-39z" fill="url(#leaf)"/>
    <path d="M160 232c58-34 128-34 200 3-35 55-105 87-176 70-25-6-47-18-62-35z" fill="url(#leaf)"/>
    <path d="M160 240c-4-59-25-121-70-171M160 240c10-62 38-114 79-159M160 240c-42-39-93-62-149-70M160 240c46-24 98-34 151-27"
          stroke="#eafff6" stroke-width="6" stroke-linecap="round" fill="none" opacity=".9"/>
    <circle cx="368" cy="88" r="10" fill="#34d399"/>
    <path d="M388 62c18 0 34 11 43 27M388 42c26 0 49 14 62 35M388 22c34 0 64 19 81 46" stroke="#6bc95d" stroke-width="7" stroke-linecap="round" fill="none"/>
  </g>

  <text x="256" y="420" text-anchor="middle" class="t1">Hortelan</text>
  <text x="256" y="462" text-anchor="middle" class="t2">AgTech Ltda</text>
</svg>
