<svg xmlns="http://www.w3.org/2000/svg" viewBox="0 0 1024 1024" role="img" aria-label="Logo Hortelan AgTech Ltda">
  <defs>
    <linearGradient id="leafGrad" x1="0" y1="0" x2="1" y2="1">
      <stop offset="0%" stop-color="#b7e543"/>
      <stop offset="45%" stop-color="#42c75b"/>
      <stop offset="100%" stop-color="#007a69"/>
    </linearGradient>
    <style>
      .leaf{fill:url(#leafGrad)}
      .vein{stroke:#ecfff4;stroke-width:8;fill:none;stroke-linecap:round;stroke-linejoin:round;opacity:.95}
      .node{fill:#ecfff4;opacity:.95}
      .title{font:700 118px 'Inter',Arial,sans-serif;fill:#045846}
      .subtitle{font:500 72px 'Inter',Arial,sans-serif;fill:#2b8a74;letter-spacing:1.2px}
      .wifi{stroke:#66c95f;stroke-width:14;stroke-linecap:round;fill:none}
      .dot{fill:#56c75c}
    </style>
  </defs>

  <g transform="translate(128 116)">
    <path class="leaf" d="M381 497c-78-129-175-198-313-205-2 104 50 208 162 273 67 39 136 55 208 47-24-32-42-71-57-115z"/>
    <path class="leaf" d="M383 496c24-150 106-262 243-340 57 122 53 264-36 377-54 69-126 109-206 116 9-43 9-98-1-153z"/>
    <path class="leaf" d="M383 498c89-84 208-121 347-105-21 130-107 244-240 290-81 28-164 25-235-6 55-37 99-94 128-179z"/>

    <path class="vein" d="M383 686c-6-112-33-213-96-302"/>
    <path class="vein" d="M383 686c20-124 62-236 132-329"/>
    <path class="vein" d="M383 686c-78-90-174-145-281-167"/>
    <path class="vein" d="M383 686c84-63 185-98 300-102"/>

    <path class="vein" d="M311 498c-62-40-126-62-190-65"/>
    <path class="vein" d="M299 554c-50-17-99-21-145-12"/>
    <path class="vein" d="M469 486c42-57 89-98 141-123"/>
    <path class="vein" d="M511 560c54-34 112-55 175-64"/>

    <circle class="node" cx="220" cy="428" r="9"/>
    <circle class="node" cx="174" cy="542" r="8"/>
    <circle class="node" cx="570" cy="400" r="9"/>
    <circle class="node" cx="676" cy="502" r="9"/>
    <circle class="node" cx="595" cy="610" r="8"/>

    <circle class="dot" cx="749" cy="338" r="16"/>
    <path class="wifi" d="M777 309c23 0 44 14 56 34"/>
    <path class="wifi" d="M777 273c39 0 74 22 94 55"/>
    <path class="wifi" d="M777 238c57 0 108 31 133 78"/>
  </g>

  <text x="512" y="850" text-anchor="middle" class="title">Hortelan</text>
  <text x="512" y="930" text-anchor="middle" class="subtitle">AgTech Ltda</text>
</svg>
